<?xml version="1.0" standalone="no"?>
<!DOCTYPE svg PUBLIC "-//W3C//DTD SVG 20010904//EN"
 "http://www.w3.org/TR/2001/REC-SVG-20010904/DTD/svg10.dtd">
<svg version="1.0"
    xmlns="http://www.w3.org/2000/svg" width="1742.000000pt" height="163.000000pt" viewBox="0 0 1742.000000 163.000000" preserveAspectRatio="xMidYMid meet">

    <g transform="translate(0.000000,163.000000) scale(0.100000,-0.100000)" fill="#ffffff" stroke="none">
        <path d="M340 1180 l0 -50 456 0 456 0 28 -28 c49 -50 52 -145 5 -199 l-23
-28 -364 -6 c-300 -4 -370 -8 -405 -22 -65 -24 -92 -46 -121 -96 -26 -44 -27
-54 -30 -198 l-4 -153 81 0 81 0 0 138 c0 208 18 230 191 231 l87 1 228 -185
228 -185 110 0 c64 0 106 4 101 9 -6 5 -95 79 -200 166 -104 86 -191 165 -193
175 -3 16 9 18 125 22 145 4 198 22 252 83 70 80 64 225 -13 301 -72 73 -83
74 -613 74 l-463 0 0 -50z"/>
        <path d="M2080 1210 c-111 -38 -168 -144 -141 -265 7 -30 23 -68 37 -84 13
-16 24 -34 24 -39 0 -6 -15 -34 -32 -63 -29 -46 -33 -61 -33 -123 0 -57 5 -80
25 -116 30 -54 95 -96 169 -110 32 -6 258 -10 557 -10 l504 0 0 50 0 50 -500
0 c-560 0 -558 0 -585 64 -33 80 -7 172 55 193 25 9 175 12 533 12 l497 1 0
50 0 50 -516 0 -516 0 -28 28 c-52 52 -52 152 0 204 l28 28 516 0 516 0 0 50
0 50 -527 0 c-492 -1 -532 -2 -583 -20z"/>
        <path d="M4531 1203 c-22 -21 -512 -720 -555 -790 -5 -10 6 -13 47 -13 l54 0
42 60 42 60 388 0 388 0 43 -60 43 -60 84 0 c46 0 83 2 83 5 0 3 -133 189
-296 415 -212 294 -301 410 -315 410 -10 0 -32 -12 -48 -27z m151 -369 c76
-104 138 -192 138 -196 0 -5 -129 -8 -286 -8 -249 0 -285 2 -280 15 6 16 229
339 254 368 9 10 20 16 26 14 6 -2 73 -88 148 -193z"/>
        <path d="M5392 1211 c-94 -32 -152 -115 -152 -216 0 -44 27 -119 51 -141 26
-23 24 -34 -13 -95 -29 -46 -33 -60 -33 -123 1 -87 27 -144 85 -182 76 -51
113 -54 663 -54 l507 0 0 50 0 50 -500 0 c-560 0 -558 0 -585 64 -33 80 -7
172 55 193 25 9 175 12 533 12 l497 1 0 50 0 50 -514 0 c-503 0 -514 0 -539
21 -57 44 -60 168 -6 214 l31 25 514 0 514 0 0 50 0 50 -527 0 c-486 -1 -532
-2 -581 -19z"/>
        <path d="M6650 1180 l0 -50 456 0 456 0 28 -28 c52 -52 52 -152 0 -204 l-28
-28 -319 0 c-175 0 -345 -5 -378 -10 -88 -14 -144 -47 -180 -105 -29 -47 -30
-51 -33 -202 l-4 -153 81 0 81 0 0 138 c0 208 18 230 191 231 l87 1 228 -185
228 -185 110 0 c60 0 107 2 105 4 -2 2 -92 77 -199 166 -107 89 -196 171 -198
181 -3 18 4 19 105 19 71 0 128 6 164 16 209 62 209 366 0 428 -47 14 -121 16
-518 16 l-463 0 0 -50z"/>
        <path d="M7930 815 l0 -415 80 0 80 0 0 415 0 415 -80 0 -80 0 0 -415z"/>
        <path d="M8811 1203 c-22 -21 -515 -723 -555 -790 -5 -10 6 -13 46 -13 l54 0
42 60 43 60 388 0 388 0 43 -60 43 -60 84 0 c46 0 83 2 83 5 0 3 -133 189
-296 415 -211 292 -301 410 -315 410 -10 0 -32 -12 -48 -27z m46 -221 c17 -26
79 -112 137 -192 58 -80 106 -148 106 -152 0 -5 -129 -8 -286 -8 -226 0 -285
3 -281 13 6 15 233 346 255 370 23 26 34 21 69 -31z"/>
        <path d="M9532 898 l3 -333 25 -45 c30 -54 95 -96 169 -110 31 -6 239 -10 497
-10 l444 0 0 50 0 50 -440 0 c-494 0 -499 1 -525 64 -12 29 -15 96 -15 351 l0
315 -81 0 -80 0 3 -332z"/>
        <path d="M11130 1211 c-6 -13 -10 -162 -10 -415 l0 -396 80 0 80 0 0 309 c0
170 3 316 6 325 3 9 14 16 23 16 9 0 108 -68 220 -151 284 -210 300 -221 325
-213 12 4 130 87 264 186 139 102 251 178 260 176 15 -3 17 -33 20 -326 l2
-322 80 0 80 0 0 403 c0 425 0 427 -46 427 -13 0 -134 -82 -290 -196 -359
-263 -334 -247 -391 -242 -44 4 -73 23 -328 210 -154 112 -290 210 -302 216
-32 18 -61 15 -73 -7z"/>
        <path d="M12860 1210 c-110 -38 -168 -146 -141 -262 6 -29 23 -66 36 -84 14
-18 25 -37 25 -43 0 -5 -15 -33 -32 -62 -29 -46 -33 -60 -33 -123 1 -87 27
-144 85 -182 76 -51 113 -54 663 -54 l507 0 0 50 0 50 -500 0 c-560 0 -558 0
-585 64 -33 80 -7 172 55 193 25 9 175 12 533 12 l497 1 0 50 0 50 -514 0
c-503 0 -514 0 -539 21 -58 45 -61 167 -6 214 l31 25 514 0 514 0 0 50 0 50
-527 0 c-492 -1 -532 -2 -583 -20z"/>
        <path d="M14110 1180 l0 -50 515 0 515 0 32 -29 33 -29 3 -241 c3 -205 1 -245
-13 -271 -31 -60 -34 -60 -585 -60 l-500 0 0 -50 0 -51 538 3 537 3 56 26 c59
28 98 71 118 128 15 45 15 462 0 516 -7 23 -28 57 -53 81 -73 74 -76 74 -673
74 l-523 0 0 -50z"/>
        <path d="M15520 815 l0 -415 80 0 80 0 0 415 0 415 -80 0 -80 0 0 -415z"/>
        <path d="M16401 1203 c-22 -21 -515 -723 -555 -790 -5 -10 6 -13 47 -13 l54 0
42 60 42 60 388 0 388 0 43 -60 43 -60 84 0 c46 0 83 2 83 5 0 3 -133 189
-296 415 -211 292 -301 410 -315 410 -10 0 -32 -12 -48 -27z m151 -369 c76
-104 138 -192 138 -196 0 -5 -129 -8 -286 -8 -244 0 -285 2 -281 14 6 16 231
341 255 369 9 10 20 16 26 14 6 -2 72 -89 148 -193z"/>
        <path d="M1620 450 l0 -50 80 0 80 0 0 50 0 50 -80 0 -80 0 0 -50z"/>
        <path d="M3330 450 l0 -50 80 0 80 0 0 50 0 50 -80 0 -80 0 0 -50z"/>
    </g>
</svg>
